<svg width="91" height="91" xmlns="http://www.w3.org/2000/svg">

 <g>
  <title>background</title>
  <rect fill="none" id="canvas_background" height="402" width="582" y="-1" x="-1"/>
 </g>
 <g>
  <title>Layer 1</title>
  <path id="svg_5" fill="#99B3B7" d="m26.646999,31.372999c-1.580999,-0.493999 -3.438,-0.851999 -5.341999,-1.004999l-4.780001,0.069c-2.811999,0.316999 -5.323999,1.153999 -7.174999,2.405998c-2.495,1.722 -3.806,3.943001 -4.168,7.091c6.337,3.600002 15.738,-0.118999 21.464999,-8.560999z"/>
  <path id="svg_6" fill="#F4F2E8" d="m54.375,41.504002l-0.006001,-0.377003c-0.141998,-3.786999 -1.459,-6.350998 -4.271,-8.293999c-2.395,-1.612 -5.995998,-2.545 -9.870998,-2.545l-0.153999,0c-3.236,0 -6.596001,0.646 -8.988003,1.731001l-0.963999,0.426998c-0.250999,0.109001 -0.538,0.111 -0.791,-0.000999l-0.792999,-0.354c-4.628,7.056999 -11.693001,11.172001 -18.019001,11.172001c-1.913,0 -3.755,-0.381001 -5.444,-1.163002c0,0.007 0,0.015003 0,0.021c0.051,5.868 1.26,8.052002 2.937,11.068001l0.261001,0.475002c1.974999,3.412998 4.089,7.710999 4.033,15.332001c-0.007,9.696999 1.854,14.286995 2.964,16.155998c1.603999,2.665001 1.901999,2.665001 3.155,2.665001c1.479,0 1.653999,-2.002998 1.656,-2.023003c0.106001,-1.075996 0.125,-2.310997 0.15,-3.735001c0.054001,-3.429001 0.124001,-7.694 1.456001,-12.189995l0.032,-0.114006c0.535,-1.750999 1.202999,-3.933998 2.542,-5.949997c1.060999,-1.603001 3.247999,-3.219002 5.74,-3.219002c1.461,0 3.551998,0.563 5.216,3.243c1.237,1.999004 1.959,4.081005 2.555,6.033001c1.341,4.497002 1.896,9.523003 1.522999,13.794998c-0.147999,1.716003 0.097,2.979004 0.712002,3.647003c0.461998,0.507996 1.006001,0.514 1.028,0.514c1.095001,0 1.549,0 3.151001,-2.669998c1.107998,-1.864006 2.972,-6.452003 2.965,-16.157005c-0.051003,-7.605999 1.970997,-11.750996 4.049,-15.345997l0.25,-0.456001c1.674,-3.016998 2.882,-5.196999 2.933998,-11.076c0.000999,-0.190998 -0.002998,-0.395 -0.007999,-0.608997z"/>
  <path id="svg_7" fill="#FFFFFF" d="m45.032001,48.839001c0,4.125 -3.34,7.472 -7.471001,7.472c-4.127003,0 -7.471001,-3.346001 -7.471001,-7.472c0,-4.128002 3.343998,-7.472 7.471001,-7.472c4.131001,0 7.471001,3.343998 7.471001,7.472z"/>
  <path id="svg_8" fill="#FFFFFF" d="m35.741001,12.175c0,2.952 -2.394001,5.345 -5.347002,5.345c-2.948,0 -5.341999,-2.394 -5.341999,-5.345c0,-2.952001 2.393999,-5.344 5.341999,-5.344c2.955,0 5.347002,2.393 5.347002,5.344z"/>
  <circle id="svg_9" r="4.552" fill="#FFFFFF" cy="67.708" cx="59.369"/>
  <path id="svg_11" fill="#3B6A75" d="m59.368999,60.955002c-1.591999,0 -3.052998,0.556999 -4.208,1.478996l-3.243,-3.093998c0.664001,-1.723999 1.424999,-3.048 2.056,-4.141998l0.257,-0.463001c1.756001,-3.168999 3.271,-5.907001 3.331001,-12.612c0,-0.280003 -0.004002,-0.571003 -0.013,-0.880001l-0.004002,-0.209c-0.177998,-4.845001 -1.970997,-8.281002 -5.66,-10.829c-2.960999,-1.995001 -7.098999,-3.094 -11.658997,-3.094l-0.150002,0c-3.667999,0 -7.52,0.754 -10.282,2.004999l-0.065001,0.030001l-0.041,-0.018999c-1.660999,-0.757 -3.729,-1.334002 -5.971001,-1.678001l4.859001,-7.960999c0.583,0.146 1.190001,0.230999 1.817999,0.230999c4.162001,0 7.548002,-3.386 7.548002,-7.546s-3.387001,-7.543 -7.548002,-7.543c-4.157,0 -7.540998,3.382999 -7.540998,7.543c0,1.941 0.743,3.707 1.949999,5.046l-6.108999,10.007l-2.211,0.031c-0.072001,0 -0.143999,0.006001 -0.214001,0.013c-3.412999,0.380999 -6.421999,1.397999 -8.715999,2.949999c-3.323,2.295 -5.094,5.340002 -5.534,9.518c-0.119,0.352001 -0.146,0.717003 -0.087,1.069c-0.004,0.091 -0.018,0.174 -0.021,0.266003l-0.005,0.285c-0.006,0.271 -0.011,0.526997 -0.011,0.785999c0.058,6.681999 1.576,9.422001 3.336,12.592999l0.28,0.506001c1.857,3.209 3.667,6.910999 3.616,13.744999c-0.009,9.938004 1.85,15.159004 3.417,17.800003c1.721001,2.862999 2.863,4.211998 5.881,4.211998c2.912001,0 4.633001,-2.491997 4.823,-4.911003c0.118,-1.185997 0.138,-2.538994 0.162001,-3.973c0.051001,-3.235001 0.115999,-7.264 1.344999,-11.406998c0.503,-1.645996 1.071001,-3.508003 2.157001,-5.148003c0.591,-0.889999 1.841999,-1.793999 3.088999,-1.793999c0.968,0 1.791,0.57 2.518002,1.740005c1.049,1.689995 1.681999,3.538994 2.209,5.270996c1.211998,4.060997 1.732998,8.774002 1.402,12.606003c-0.232002,2.663994 0.282997,4.704994 1.531998,6.066994c1.313,1.435005 2.916,1.547005 3.375,1.547005l0.002003,0c2.862,0 4.125999,-1.300003 5.877998,-4.221001c1.561001,-2.628998 3.418999,-7.848 3.411999,-17.803001c-0.011997,-1.784996 0.110001,-3.358002 0.32,-4.760002l2.130001,2.032005c-0.104,0.471001 -0.162998,0.958 -0.162998,1.459999c0,3.725998 3.027,6.752998 6.752998,6.752998c3.723,0 6.753002,-3.027 6.753002,-6.752998c0,-3.722 -3.030003,-6.750999 -6.753002,-6.750999zm-28.975,-51.922002c1.735003,0 3.146002,1.408 3.146002,3.142s-1.410999,3.145 -3.146002,3.145c-1.73,0 -3.139999,-1.410999 -3.139999,-3.145s1.409,-3.142 3.139999,-3.142zm-20.355,24.822999c1.667001,-1.128998 3.951,-1.887999 6.614,-2.197998l4.653,-0.063002c1.146,0.098001 2.264999,0.271 3.309999,0.503c-5.16,6.610001 -12.693999,9.608002 -18.090999,7.171001c0.434,-2.361 1.535,-4.047001 3.513999,-5.413002zm35.891001,35.134998c0.007999,9.410004 -1.748001,13.774002 -2.789001,15.528c-1.215,2.021004 -1.419998,2.076004 -2.049999,2.078003c-0.341,-0.074997 -0.737,-0.987 -0.575001,-2.832001c0.382,-4.421997 -0.188999,-9.613998 -1.572998,-14.257996c-0.618,-2.029007 -1.367001,-4.199005 -2.684002,-6.324005c-1.530998,-2.461998 -3.752998,-3.82 -6.258999,-3.82c-2.591999,0 -5.243,1.479 -6.759001,3.766003c-1.439999,2.174 -2.164999,4.555996 -2.695999,6.295002c-0.002001,0.005997 -0.028,0.093994 -0.030001,0.099998c-1.379999,4.655998 -1.448,9.017998 -1.505999,12.520996c-0.021,1.399002 -0.042002,2.606003 -0.144001,3.654999c-0.031,0.393005 -0.243,0.825005 -0.438,0.898003c-0.811001,0 -0.858999,0 -2.103001,-2.068001c-1.046,-1.764999 -2.801999,-6.127998 -2.794,-15.520996c0.058001,-7.929001 -2.143,-12.399002 -4.186999,-15.931004l-0.263,-0.475998c-1.408,-2.538002 -2.468,-4.457001 -2.725,-8.716c1.328,0.394997 2.717,0.591 4.141,0.591c6.469999,0 13.6,-3.971001 18.459999,-10.844002l6.277002,3.327c0.327,0.174999 0.679996,0.257999 1.028,0.257999c0.786999,0 1.550999,-0.425999 1.946999,-1.170998c0.568001,-1.075001 0.16,-2.406002 -0.915001,-2.977001l-2.014,-1.067001c1.537003,-0.310999 3.195,-0.487999 4.795002,-0.487999l0.149998,0c3.639999,0 6.991001,0.854 9.179001,2.327999c2.495998,1.725002 3.616001,3.923 3.741001,7.313l0.002998,0.170002c0.006001,0.278999 0.012001,0.542 0.012001,0.778c-0.049,5.567001 -1.195,7.634998 -2.778999,10.497002l-0.241001,0.432999c-0.544998,0.944 -1.098,1.953999 -1.617001,3.07l-2.578999,-2.459999c0.815998,-1.417 1.290001,-3.056 1.290001,-4.805c0,-5.333 -4.339001,-9.671001 -9.673,-9.671001c-5.332001,0 -9.671001,4.338001 -9.671001,9.671001s4.339001,9.673 9.671001,9.673c1.993,0 3.845997,-0.606003 5.386997,-1.644001l3.941002,3.759998c-0.600002,2.307003 -0.982002,5.027 -0.958,8.362999zm-8.368,-14.880997c-2.904999,0 -5.271,-2.365002 -5.271,-5.271c0,-2.905003 2.366001,-5.271 5.271,-5.271c2.904999,0 5.271,2.364998 5.271,5.271c-0.000999,2.905998 -2.367001,5.271 -5.271,5.271zm21.806999,15.950996c-1.295998,0 -2.353001,-1.056999 -2.353001,-2.352997s1.057003,-2.351997 2.353001,-2.351997s2.353001,1.056 2.353001,2.351997s-1.056999,2.352997 -2.353001,2.352997z"/>
  <rect id="svg_12" y="7.656" x="42.335" width="24.977" height="4.402" fill="#3B6A75"/>
  <rect id="svg_13" y="14.975" x="42.335" width="16.42" height="4.4" fill="#3B6A75"/>
  <rect id="svg_14" y="63.063" x="69.676" width="19.324" height="4.401" fill="#3B6A75"/>
  <rect id="svg_15" y="70.377" x="69.676" width="12.948" height="4.402" fill="#3B6A75"/>
 </g>
</svg>