<svg width="91" height="91" xmlns="http://www.w3.org/2000/svg">

 <g>
  <title>background</title>
  <rect fill="none" id="canvas_background" height="402" width="582" y="-1" x="-1"/>
 </g>
 <g>
  <title>Layer 1</title>
  <path id="svg_3" fill="#bfbdb5" d="m66.928,88.07l-49.383,0l0,-59.833l57.455,0.002l0,51.762c0,4.437 -3.633,8.069 -8.072,8.069z"/>
  <path id="svg_4" fill="#3c393d" d="m66.928,90.583l-49.383,0c-1.387,0 -2.512,-1.125 -2.512,-2.513l0,-59.833c0,-0.666 0.265,-1.306 0.736,-1.777c0.471,-0.471 1.109,-0.735 1.775,-0.735l0,0l57.456,0.002c1.388,0.001 2.513,1.125 2.513,2.513l0,51.762c0,5.833 -4.749,10.581 -10.585,10.581zm-46.869,-5.025l46.869,0c3.065,0 5.56,-2.492 5.56,-5.557l0,-49.25l-52.429,-0.001l0,54.808z"/>
  <rect id="svg_6" y="14.747" x="13.88" width="64.78" height="13.49" fill="#989690"/>
  <path id="svg_7" fill="#3c393d" d="m78.66,30.75l-64.78,0c-1.388,0 -2.513,-1.125 -2.513,-2.513l0,-13.49c0,-1.389 1.125,-2.514 2.513,-2.514l64.78,0c1.389,0 2.514,1.125 2.514,2.514l0,13.49c0,1.388 -1.125,2.513 -2.514,2.513zm-62.267,-5.025l59.756,0l0,-8.466l-59.756,0l0,8.466z"/>
  <path id="svg_8" fill="#3c393d" d="m56.946,17.262l-21.356,0c-1.388,0 -2.513,-1.125 -2.513,-2.513l0,-12.103c0,-1.388 1.125,-2.513 2.513,-2.513l21.356,0c1.388,0 2.513,1.125 2.513,2.513l0,12.103c0,1.388 -1.125,2.513 -2.513,2.513zm-18.843,-5.026l16.331,0l0,-7.077l-16.331,0l0,7.077z"/>
  <path id="svg_9" fill="#3c393d" d="m32.033,78.481c-1.387,0 -2.512,-1.125 -2.512,-2.514l0,-33.456c0,-1.388 1.125,-2.513 2.512,-2.513c1.389,0 2.514,1.125 2.514,2.513l0,33.457c0,1.388 -1.125,2.513 -2.514,2.513z"/>
  <path id="svg_10" fill="#3c393d" d="m46.271,78.481c-1.388,0 -2.513,-1.125 -2.513,-2.514l0,-33.456c0,-1.388 1.125,-2.513 2.513,-2.513s2.513,1.125 2.513,2.513l0,33.457c0,1.388 -1.125,2.513 -2.513,2.513z"/>
  <path id="svg_11" fill="#3c393d" d="m60.509,78.481c-1.388,0 -2.513,-1.125 -2.513,-2.514l0,-33.456c0,-1.388 1.125,-2.513 2.513,-2.513s2.513,1.125 2.513,2.513l0,33.457c-0.001,1.388 -1.126,2.513 -2.513,2.513z"/>
 </g>
</svg>