<svg width="91" height="91" xmlns="http://www.w3.org/2000/svg">

 <g>
  <title>background</title>
  <rect fill="none" id="canvas_background" height="402" width="582" y="-1" x="-1"/>
 </g>
 <g>
  <title>Layer 1</title>
  <rect id="svg_5" y="10.638" x="5.767" width="78.765" height="17.589" fill="#989690"/>
  <path id="svg_6" fill="#3c393d" d="m84.531,30.739l-78.764,0c-1.388,0 -2.513,-1.125 -2.513,-2.513l0,-17.588c0,-1.388 1.125,-2.513 2.513,-2.513l78.765,0c1.387,0 2.512,1.125 2.512,2.513l0,17.589c-0.001,1.387 -1.126,2.512 -2.513,2.512zm-76.252,-5.025l73.738,0l0,-12.564l-73.738,0l0,12.564z"/>
  <path id="svg_8" fill="#f5f9f8" d="m5.769,28.229l0,60.224l70.84,0c4.354,0 7.923,-3.566 7.923,-7.926l0,-52.298l-78.763,0z"/>
  <path id="svg_9" fill="#3c393d" d="m76.609,90.966l-70.84,0c-1.388,0 -2.513,-1.125 -2.513,-2.513l0,-60.224c0,-1.388 1.125,-2.513 2.513,-2.513l78.763,0c1.388,0 2.513,1.125 2.513,2.513l0,52.298c0,5.756 -4.682,10.439 -10.436,10.439zm-68.327,-5.026l68.328,0c2.982,0 5.41,-2.428 5.41,-5.413l0,-49.785l-73.738,0l0,55.198z"/>
  <path id="svg_10" fill="#3c393d" d="m21.619,20.727c-1.388,0 -2.513,-1.125 -2.513,-2.513l0,-14.911c0,-1.388 1.125,-2.513 2.513,-2.513s2.513,1.125 2.513,2.513l0,14.911c-0.001,1.388 -1.126,2.513 -2.513,2.513z"/>
  <path id="svg_11" fill="#3c393d" d="m45.15,20.727c-1.388,0 -2.513,-1.125 -2.513,-2.513l0,-14.911c0,-1.388 1.125,-2.513 2.513,-2.513s2.513,1.125 2.513,2.513l0,14.911c0,1.388 -1.125,2.513 -2.513,2.513z"/>
  <path id="svg_12" fill="#3c393d" d="m68.684,20.727c-1.388,0 -2.513,-1.125 -2.513,-2.513l0,-14.911c0,-1.388 1.125,-2.513 2.513,-2.513s2.513,1.125 2.513,2.513l0,14.911c-0.001,1.388 -1.126,2.513 -2.513,2.513z"/>
  <path id="svg_13" fill="#3c393d" d="m28.728,54.737l-11.877,0c-1.388,0 -2.513,-1.125 -2.513,-2.513l0,-11.881c0,-1.388 1.125,-2.513 2.513,-2.513l11.876,0c1.388,0 2.513,1.125 2.513,2.513l0,11.882c0,1.387 -1.125,2.512 -2.512,2.512zm-9.364,-5.025l6.851,0l0,-6.856l-6.851,0l0,6.856z"/>
  <path id="svg_14" fill="#3c393d" d="m51.092,54.737l-11.88,0c-1.388,0 -2.513,-1.125 -2.513,-2.513l0,-11.881c0,-1.388 1.125,-2.513 2.513,-2.513l11.88,0c1.389,0 2.514,1.125 2.514,2.513l0,11.882c-0.001,1.387 -1.126,2.512 -2.514,2.512zm-9.367,-5.025l6.855,0l0,-6.856l-6.855,0l0,6.856z"/>
  <path id="svg_15" fill="#3c393d" d="m73.454,54.737l-11.878,0c-1.388,0 -2.513,-1.125 -2.513,-2.513l0,-11.881c0,-1.388 1.125,-2.513 2.513,-2.513l11.878,0c1.388,0 2.513,1.125 2.513,2.513l0,11.882c0,1.387 -1.125,2.512 -2.513,2.512zm-9.365,-5.025l6.853,0l0,-6.856l-6.853,0l0,6.856z"/>
  <path id="svg_16" fill="#3c393d" d="m28.728,78.278l-11.877,0c-1.388,0 -2.513,-1.125 -2.513,-2.513l0,-11.88c0,-1.388 1.125,-2.513 2.513,-2.513l11.876,0c1.388,0 2.513,1.125 2.513,2.513l0,11.88c0,1.388 -1.125,2.513 -2.512,2.513zm-9.364,-5.025l6.851,0l0,-6.854l-6.851,0l0,6.854z"/>
  <path id="svg_17" fill="#3c393d" d="m51.092,78.278l-11.88,0c-1.388,0 -2.513,-1.125 -2.513,-2.513l0,-11.88c0,-1.388 1.125,-2.513 2.513,-2.513l11.88,0c1.389,0 2.514,1.125 2.514,2.513l0,11.88c-0.001,1.388 -1.126,2.513 -2.514,2.513zm-9.367,-5.025l6.855,0l0,-6.854l-6.855,0l0,6.854z"/>
  <path id="svg_18" fill="#3c393d" d="m73.454,78.278l-11.878,0c-1.388,0 -2.513,-1.125 -2.513,-2.513l0,-11.88c0,-1.388 1.125,-2.513 2.513,-2.513l11.878,0c1.388,0 2.513,1.125 2.513,2.513l0,11.88c0,1.388 -1.125,2.513 -2.513,2.513zm-9.365,-5.025l6.853,0l0,-6.854l-6.853,0l0,6.854z"/>
 </g>
</svg>