<svg width="90.99999999999999" height="90.99999999999999" xmlns="http://www.w3.org/2000/svg">

 <g>
  <title>background</title>
  <rect fill="none" id="canvas_background" height="402" width="582" y="-1" x="-1"/>
 </g>
 <g>
  <title>Layer 1</title>
  <circle id="svg_2" r="33.947" fill="#989690" cy="46.069" cx="45.797"/>
  <path id="svg_5" fill="#3c393d" d="m46.027,90.339c-24.588,0 -44.594,-20.007 -44.594,-44.599c0,-24.591 20.006,-44.597 44.594,-44.597c24.592,0 44.598,20.006 44.598,44.597c0,24.592 -20.006,44.599 -44.598,44.599zm0,-84.17c-21.818,0 -39.568,17.752 -39.568,39.571c0,21.821 17.75,39.573 39.568,39.573c21.82,0 39.572,-17.752 39.572,-39.573c0.001,-21.819 -17.751,-39.571 -39.572,-39.571z"/>
  <path id="svg_6" fill="#3c393d" d="m61.092,48.253l-14.926,0c-1.388,0 -2.513,-1.125 -2.513,-2.513l0,-32.359c0,-1.388 1.125,-2.513 2.513,-2.513s2.513,1.125 2.513,2.513l0,29.847l12.413,0c1.387,0 2.512,1.125 2.512,2.513s-1.125,2.512 -2.512,2.512z"/>
  <path id="svg_7" fill="#3c393d" d="m46.166,80.565c-1.388,0 -2.513,-1.125 -2.513,-2.513l0,-7.181c0,-1.388 1.125,-2.513 2.513,-2.513s2.513,1.125 2.513,2.513l0,7.181c0,1.388 -1.125,2.513 -2.513,2.513z"/>
  <path id="svg_8" fill="#3c393d" d="m20.708,48.253l-7.073,0c-1.387,0 -2.512,-1.125 -2.512,-2.513s1.125,-2.513 2.512,-2.513l7.073,0c1.388,0 2.513,1.125 2.513,2.513s-1.125,2.513 -2.513,2.513z"/>
  <path id="svg_9" fill="#3c393d" d="m78.424,48.253l-7.07,0c-1.387,0 -2.512,-1.125 -2.512,-2.513s1.125,-2.513 2.512,-2.513l7.07,0c1.387,0 2.512,1.125 2.512,2.513s-1.125,2.513 -2.512,2.513z"/>
  <path id="svg_10" fill="#3c393d" d="m27.371,31.083c-0.605,0 -1.213,-0.218 -1.694,-0.658l-5.222,-4.773c-1.023,-0.937 -1.095,-2.525 -0.158,-3.55c0.936,-1.023 2.525,-1.095 3.549,-0.159l5.222,4.773c1.024,0.937 1.095,2.525 0.159,3.55c-0.497,0.542 -1.174,0.817 -1.856,0.817z"/>
  <path id="svg_11" fill="#3c393d" d="m69.975,70.026c-0.605,0 -1.213,-0.218 -1.694,-0.658l-5.222,-4.771c-1.023,-0.936 -1.096,-2.525 -0.159,-3.55s2.525,-1.096 3.55,-0.159l5.221,4.771c1.024,0.936 1.096,2.525 0.16,3.55c-0.497,0.542 -1.176,0.817 -1.856,0.817z"/>
  <path id="svg_12" fill="#3c393d" d="m24.198,72.076c-0.606,0 -1.214,-0.218 -1.696,-0.659c-1.023,-0.938 -1.094,-2.526 -0.156,-3.55l4.776,-5.217c0.938,-1.024 2.526,-1.093 3.55,-0.157c1.023,0.938 1.094,2.526 0.156,3.55l-4.776,5.217c-0.495,0.542 -1.173,0.816 -1.854,0.816z"/>
  <path id="svg_13" fill="#3c393d" d="m63.145,29.478c-0.605,0 -1.212,-0.218 -1.693,-0.658c-1.025,-0.936 -1.097,-2.524 -0.16,-3.549l4.77,-5.221c0.936,-1.025 2.525,-1.096 3.55,-0.16s1.097,2.524 0.16,3.549l-4.772,5.22c-0.495,0.543 -1.174,0.819 -1.855,0.819z"/>
 </g>
</svg>