<svg width="91" height="91" xmlns="http://www.w3.org/2000/svg">

 <g>
  <title>background</title>
  <rect fill="none" id="canvas_background" height="402" width="582" y="-1" x="-1"/>
 </g>
 <g>
  <title>Layer 1</title>
  <path id="svg_5" fill="#F4F2E8" d="m72.781998,34.678001l-0.004997,-0.393002c-0.188004,-5.035 -2.041,-8.598999 -5.841003,-11.222c-3.119995,-2.105999 -7.521996,-3.265999 -12.397999,-3.265999l-0.128998,0c-3.945,0 -8.074001,0.800999 -11.034,2.137999l-0.477001,0.213001l-0.466999,-0.207001c-2.293999,-1.044001 -5.459999,-1.789 -8.683998,-2.047001c-0.045002,-0.002998 -0.092003,-0.004999 -0.134003,-0.004l-5.408998,0.069c-0.048,0.000999 -0.095001,0.003 -0.143,0.009001c-3.634001,0.413 -6.815001,1.483999 -9.213001,3.105c-3.792999,2.615999 -5.646,6.18 -5.829,11.246l-0.007,0.470001c-0.006001,0.231998 -0.011,0.458 -0.011,0.681c0.059999,7.155998 1.684999,10.088997 3.565,13.486l0.313,0.560997c2.131001,3.678001 4.208,7.923 4.152,15.769005c-0.011,10.807999 1.973999,16.422997 3.646,19.236c1.952999,3.246994 2.931999,4.189995 5.667999,4.189995c2.627001,0 4.178999,-2.300995 4.351,-4.544998c0.125999,-1.279999 0.151001,-2.769997 0.176003,-4.345001c0.058998,-3.649002 0.133999,-8.191002 1.510998,-12.832001l0.034,-0.114998c0.546001,-1.792 1.226002,-4.021 2.511002,-5.956001c0.781998,-1.175999 2.447998,-2.441998 4.271,-2.441998c1.43,0 2.653999,0.810997 3.646,2.405998c1.225998,1.977001 1.959999,4.103001 2.566998,6.097004c1.379002,4.635994 1.974003,10.006996 1.592003,14.366997c-0.231003,2.667 0.252998,4.678001 1.440998,5.976997c0.938999,1.024002 2.167,1.389999 3.004002,1.389999l0.001999,0c2.672001,0 3.806,-1.098999 5.661999,-4.195c1.669003,-2.804001 3.658005,-8.416 3.648003,-19.239998c-0.052002,-7.834 2.022995,-12.082001 4.171997,-15.788998l0.288002,-0.521c1.880997,-3.396 3.503998,-6.330002 3.567001,-13.509003c0.003998,-0.252998 0,-0.511997 -0.006004,-0.781998z"/>
  <path id="svg_6" fill="#3B6A75" d="m73.499001,34.608002l-0.007004,-0.352001c-0.195999,-5.280001 -2.145996,-9.022001 -6.154999,-11.790001c-3.237,-2.184999 -7.781998,-3.388 -12.795998,-3.388l-0.138,0c-4.041,0 -8.278,0.824001 -11.325001,2.200001l-0.182999,0.082001l-0.167999,-0.075001c-2.403999,-1.093 -5.573002,-1.84 -8.924,-2.107c-0.066002,-0.004999 -0.135002,-0.007 -0.199001,-0.005999l-5.408001,0.068998c-0.071999,0.001001 -0.143999,0.006001 -0.216,0.014c-3.746,0.425001 -7.039,1.537001 -9.539,3.227001c-3.997,2.758999 -5.948,6.5 -6.141,11.830999l-0.009,0.463001c-0.004001,0.237999 -0.008,0.466999 -0.008,0.700001c0.061,7.338997 1.728,10.347 3.655,13.827999l0.319,0.575001c2.082001,3.591 4.110001,7.737 4.056999,15.406002c-0.009998,10.970993 2.031,16.712997 3.75,19.605995c1.896,3.155998 3.063002,4.539001 6.283001,4.539001c3.064999,0 4.870998,-2.636002 5.063,-5.190002c0.130001,-1.311996 0.154999,-2.814995 0.181,-4.407997c0.060001,-3.605003 0.132999,-8.091003 1.477001,-12.631004l0.035,-0.112999c0.562,-1.836998 1.196999,-3.919998 2.424999,-5.770996c0.699001,-1.054001 2.187,-2.120003 3.672001,-2.120003c1.162998,0 2.184998,0.694 3.035,2.063c1.175999,1.899002 1.894001,3.978001 2.488998,5.924c1.353001,4.553001 1.938,9.821999 1.563,14.101006c-0.249001,2.875999 0.299,5.07 1.629002,6.521996c1.381001,1.506004 3.055,1.623001 3.534,1.623001l0.001999,0c3.041,0 4.394001,-1.400002 6.278,-4.546997c1.716,-2.881004 3.759998,-8.621002 3.750004,-19.613007c-0.050003,-7.652996 1.978996,-11.802998 4.081993,-15.436996l0.288002,-0.521c1.928001,-3.480999 3.591003,-6.487999 3.658005,-13.854c0.001999,-0.272999 -0.003006,-0.556 -0.009003,-0.849998zm-7.417999,12.618l-0.269005,0.488998c-2.275997,3.928001 -4.697998,8.851002 -4.639996,17.574001c0.007,10.525002 -1.966999,15.414001 -3.142002,17.386002c-1.446999,2.414993 -1.716999,2.445999 -2.545998,2.445999c-0.576,-0.07 -1.100002,-1.177002 -0.902,-3.459999c0.426998,-4.860001 -0.202999,-10.584 -1.729,-15.719002c-0.686001,-2.241001 -1.518002,-4.636002 -2.954002,-6.952c-1.641998,-2.646 -4.021,-4.104 -6.697998,-4.104c-3.163002,0 -5.928001,2.032997 -7.264999,4.049c-1.574001,2.372997 -2.34,4.879997 -2.955002,6.895l-0.039997,0.130997c-1.517002,5.122002 -1.596003,9.935005 -1.659002,13.802002c-0.024,1.567001 -0.046999,2.919998 -0.164,4.103996c-0.000999,0.012001 -0.145,1.256004 -0.77,1.256004c-1.032999,0 -1.116999,0 -2.581999,-2.438004c-1.177,-1.979996 -3.149,-6.874001 -3.141001,-17.379997c0.063,-8.740002 -2.361,-13.659 -4.613001,-17.543999l-0.299999,-0.543003c-1.778999,-3.209999 -3.065001,-5.529999 -3.115999,-11.755997c0,-0.190002 0.004,-0.390003 0.007999,-0.599003l0.007,-0.444c0.143,-3.905998 1.422001,-6.414 4.261999,-8.373999c1.889,-1.276001 4.476002,-2.136999 7.489,-2.492001l5.198002,-0.064999c2.787998,0.230999 5.474998,0.858 7.399998,1.733999l0.987,0.438l7.191002,3.816999c0.321999,0.171001 0.668999,0.252001 1.008999,0.252001c0.771999,0 1.521,-0.416 1.906002,-1.145c0.556999,-1.052 0.156998,-2.355999 -0.894001,-2.914999l-2.936001,-1.559c1.939999,-0.456001 4.105999,-0.717001 6.181,-0.717001l0.138,0c4.103001,0 7.888,0.967001 10.364998,2.638c2.853004,1.969999 4.131004,4.479 4.276001,8.344999l0.006004,0.315002c0.004997,0.266998 0.009995,0.521 0.009995,0.750999c-0.054001,6.250999 -1.339996,8.571999 -3.117996,11.784z"/>
  <path id="svg_8" fill="#99B3B7" d="m86.266998,14.553c-6.361,0 -6.478996,-8.489 -6.481995,-8.845c0,-0.003 0,-0.007 0,-0.011c0,-0.001 0,-0.003 0,-0.004c0,-0.004 0,-0.009 0,-0.014c-0.001007,-0.002 -0.001007,-0.003 0,-0.003c-0.001007,-0.002 -0.001007,-0.003 0,-0.003c0,-0.001 0,-0.002 0,-0.003c-0.019005,-1.173 -0.976006,-2.117 -2.154007,-2.117c-1.187996,0 -2.152,0.962 -2.154999,2.15c-0.001999,0.368 -0.123001,8.85 -6.483002,8.85c-0.002998,0 -0.004997,0 -0.007996,0c-0.000999,0 -0.002998,0 -0.004997,0l-0.001007,0c-0.000999,0 -0.001999,0 -0.003998,0c-1.183998,0.009999 -2.139,0.971999 -2.139,2.155999c0,1.184 0.956001,2.146 2.139999,2.155001c0.681,0.013 6.5,0.381001 6.5,8.845999c0,1.189001 0.966003,2.155001 2.154999,2.155001s2.154007,-0.966 2.154007,-2.156c0,-8.479 5.835999,-8.833 6.481995,-8.847c1.189003,0 2.153999,-0.965 2.153999,-2.153999c0,-1.190001 -0.964996,-2.155 -2.153999,-2.155zm-8.639,4.824c-0.697998,-1.074001 -1.520996,-1.934 -2.395996,-2.610001c0.979996,-0.801001 1.769997,-1.777 2.395996,-2.841001c0.629005,1.063001 1.417999,2.04 2.397003,2.841001c-0.875,0.676001 -1.697998,1.535999 -2.397003,2.610001z"/>
  <path id="svg_9" fill="#99B3B7" d="m42.075001,39.234001c-6.18,0 -6.297001,-8.264002 -6.299,-8.611002c0,-1.188 -0.961002,-2.148998 -2.149002,-2.150999c-0.001999,0 -0.003998,0 -0.004997,0c-1.185001,0 -2.148001,0.959999 -2.154001,2.146c-0.002001,0.351999 -0.118999,8.616001 -6.301001,8.616001c-1.188999,0 -2.153999,0.965 -2.153999,2.153999c0,1.190998 0.965,2.155998 2.153999,2.155998c0.257999,0 6.301001,0.098 6.301001,8.608002c0,1.189999 0.964998,2.154999 2.154001,2.154999s2.153999,-0.965 2.153999,-2.154999c0,-8.247002 5.673,-8.596001 6.299,-8.608002c1.189999,0 2.154999,-0.965 2.154999,-2.155998c0,-1.188999 -0.964001,-2.153999 -2.154999,-2.153999zm-8.454002,4.68c-0.667,-1.009003 -1.445,-1.823002 -2.271997,-2.471001c0.921999,-0.764 1.671999,-1.688 2.271997,-2.692001c0.601002,1.004002 1.350002,1.929001 2.272003,2.692001c-0.827,0.647999 -1.606003,1.461998 -2.272003,2.471001z"/>
  <path id="svg_10" fill="#99B3B7" d="m16.691999,14.381c-3.676,0 -3.820999,-4.908 -3.825,-5.459c0,-0.003 0,-0.005 0,-0.007s0,-0.005 0,-0.007c-0.007,-1.185 -0.969,-2.143 -2.155,-2.143c-1.188,0 -2.151,0.961 -2.154,2.148c-0.004999,0.563 -0.151,5.467 -3.822999,5.467c-1.19,0 -2.155,0.965 -2.155,2.155999c0,1.190001 0.965,2.156 2.155,2.156c0.391,0 3.822999,0.152 3.822999,5.456001c0,1.191 0.965,2.156 2.154,2.156c1.190001,0 2.155,-0.965 2.155,-2.155001c0,-5.089001 3.21,-5.439001 3.825,-5.457001c1.190001,0 2.155001,-0.966 2.155001,-2.156c0.000999,-1.19 -0.964001,-2.155 -2.155001,-2.155zm-5.98,2.867c-0.205,-0.247 -0.421,-0.476999 -0.644,-0.686998c0.231,-0.236 0.446,-0.486 0.644,-0.749001c0.199,0.263 0.414001,0.513 0.646,0.749001c-0.223,0.209999 -0.439,0.439999 -0.646,0.686998z"/>
  <path id="svg_11" fill="#FFFFFF" d="m62.549999,39.988998c-0.040001,0 -0.079998,0 -0.120998,-0.002998c-1.056999,-0.064999 -1.859001,-0.974998 -1.794003,-2.030998c0.109001,-1.781002 -0.035999,-5.071003 -2.252998,-7.086002c-0.780998,-0.710999 -0.84,-1.924 -0.126999,-2.706999c0.712997,-0.782001 1.924,-0.84 2.707001,-0.128c2.519997,2.291 3.761997,5.896999 3.496998,10.158001c-0.062996,1.015999 -0.905998,1.796997 -1.909,1.796997z"/>
 </g>
</svg>