<?xml version="1.0" encoding="UTF-8" standalone="no"?>
<svg
   xmlns:dc="http://purl.org/dc/elements/1.1/"
   xmlns:cc="http://creativecommons.org/ns#"
   xmlns:rdf="http://www.w3.org/1999/02/22-rdf-syntax-ns#"
   xmlns:svg="http://www.w3.org/2000/svg"
   xmlns="http://www.w3.org/2000/svg"
   xmlns:sodipodi="http://sodipodi.sourceforge.net/DTD/sodipodi-0.dtd"
   xmlns:inkscape="http://www.inkscape.org/namespaces/inkscape"
   width="64"
   height="64"
   version="1.1"
   id="svg3745"
   sodipodi:docname="exitsign.svg"
   inkscape:version="0.92.3 (2405546, 2018-03-11)">
  <metadata
     id="metadata3751">
    <rdf:RDF>
      <cc:Work
         rdf:about="">
        <dc:format>image/svg+xml</dc:format>
        <dc:type
           rdf:resource="http://purl.org/dc/dcmitype/StillImage" />
        <dc:title></dc:title>
      </cc:Work>
    </rdf:RDF>
  </metadata>
  <defs
     id="defs3749" />
  <sodipodi:namedview
     pagecolor="#ffffff"
     bordercolor="#666666"
     borderopacity="1"
     objecttolerance="10"
     gridtolerance="10"
     guidetolerance="10"
     inkscape:pageopacity="0"
     inkscape:pageshadow="2"
     inkscape:window-width="1600"
     inkscape:window-height="838"
     id="namedview3747"
     showgrid="false"
     inkscape:zoom="10.453125"
     inkscape:cx="32"
     inkscape:cy="32"
     inkscape:window-x="-8"
     inkscape:window-y="-8"
     inkscape:window-maximized="1"
     inkscape:current-layer="g3743" />
  <g
     id="g3736">
    <title
       id="title3733">background</title>
    <rect
       fill="none"
       id="canvas_background"
       height="402"
       width="582"
       y="-1"
       x="-1" />
  </g>
  <g
     id="g3743">
    <title
       id="title3738">Layer 1</title>
    <g
       id="g4564"
       transform="rotate(-45,32.000001,31.999985)">
      <path
         style="fill:#c29760;fill-opacity:1"
         class="st0"
         d="M 32,55.899994 C 18.799999,55.899994 8.1,45.199997 8.1,31.999985 8.1,18.799988 18.799999,8.099976 32,8.099976 c 13.200001,0 23.900002,10.700012 23.900002,23.900009 0,13.200012 -10.700001,23.900009 -23.900002,23.900009 z m 0,-45.199982 c -11.700001,0 -21.299999,9.600006 -21.299999,21.300003 0,11.699997 9.599998,21.299988 21.299999,21.299988 11.700001,0 21.299999,-9.599991 21.299999,-21.299988 C 53.299999,20.300018 43.700001,10.700012 32,10.700012 Z"
         id="Fill-38"
         inkscape:connector-curvature="0" />
      <polygon
         style="fill:#c29760;fill-opacity:1"
         class="st0"
         id="Fill-39"
         points="19.3,33.399994 19.3,30.600006 44.700001,30.600006 44.700001,33.399994 " />
      <polygon
         style="fill:#c29760;fill-opacity:1"
         class="st0"
         id="Fill-40"
         points="30.6,44.699997 30.6,19.299988 33.4,19.299988 33.4,44.699997 " />
    </g>
  </g>
</svg>
