<?xml version="1.0" encoding="utf-8"?>
<!-- Generator: Adobe Illustrator 22.0.0, SVG Export Plug-In . SVG Version: 6.00 Build 0)  -->
<svg version="1.1" id="Layer_1" xmlns="http://www.w3.org/2000/svg" xmlns:xlink="http://www.w3.org/1999/xlink" x="0px" y="0px"
	 viewBox="0 0 235.8 235.4" style="enable-background:new 0 0 235.8 235.4;" xml:space="preserve">
<style type="text/css">
	.st0{fill:#C2965F;}
	.st1{fill:#C2975F;}
</style>
<g>
	<path class="st0" d="M120.3,0c2.3,1.8,3.2,4,3.1,6.9c-0.1,8.7,0,17.3-0.1,26c0,4.1-2.2,6.9-5.4,7c-3.1,0.1-5.6-2.8-5.7-6.9
		c-0.1-8.8,0.1-17.7-0.1-26.5c-0.1-2.9,1.5-4.6,3.1-6.5C117,0,118.7,0,120.3,0z"/>
	<path class="st1" d="M95.3,38.2c0.2,4.1-1.7,5.9-4.4,6.6c-2.5,0.7-4.3-0.6-5.7-2.9c-2.1-3.8-3.6-7.8-4.8-12
		c-1.5-5.3-3.9-10.2-5.7-15.3c-0.8-2.2-0.9-4.7,1.1-6.5c1.7-1.6,3.7-1.9,6-1.2c1.4,0.4,2.1,1.2,2.8,2.5c4.6,8.8,6.3,18.8,10.7,27.7
		C95.5,37.6,95.3,38.4,95.3,38.2z"/>
	<path class="st1" d="M161.3,12.2c0.1,1.3-0.3,2.4-0.7,3.5c-2.8,7.4-5.4,14.8-8.1,22.2c-0.5,1.4-1.3,2.7-2,4
		c-1.4,2.7-3.6,3.9-6.6,2.7c-2.9-1.3-4.6-4-3.4-6.9c4-9.4,6.3-19.4,10.8-28.5c1.3-2.7,3.6-3,6.2-2.3C160.4,7.6,161.6,9.5,161.3,12.2
		z"/>
	<path class="st0" d="M1.5,232.6c0-38.9,0-77.3,0-116.6c16.8-0.8,33.3-0.8,49.6,6.5c-0.7-4.1-1.4-7.5-1.9-11
		C46.6,95.4,50.9,81.6,62.6,70c9.6-9.6,21.2-14,34.4-13.9c5.9,0,11.9,1,17.3,3.6c2.5,1.2,4.5,0.9,7,0c26.8-10.4,54.7,3.4,63.4,28.5
		c3.8,11,3.6,22.2-1,34.6c16.8-7.5,33.3-7.6,50.2-6.9c0,39.1,0,77.7,0,116.7C156.7,232.6,79.4,232.6,1.5,232.6z M178.9,138.5
		c-5.4,3.9-10,8.7-14.7,13.4c-8.1,8.2-17.6,13.9-28.8,16.7c-6.7,1.6-13.5,1.3-20.3,1.5c-17.6,0.3-32-6.5-44.2-18.9
		c-8-8.1-16-16.2-27.5-19.9c-10-3.2-20-5.3-30.5-4c0,31.6,0,62.9,0,94.2c70.3,0,140.2,0,210.3,0c0-31.5,0-62.8,0-94.5
		C206.8,126.3,192,129.1,178.9,138.5z M112.9,71.4c-8.5-4.7-17.6-5.6-26.8-2.8c-19.3,5.7-31.7,25.3-25,46.1c2.9,8.9,6,18,13.7,24.8
		c5.3,4.7,10.1,10,16.3,13.6c8.9,5.1,18.6,5.8,28.7,6.2c20.3,0.6,34.2-10.7,45.7-24.8c5.1-6.2,8.2-14.9,10-23.5
		c5.3-24.4-17.7-47.8-41.7-43.1c-5.7,1.1-10.5,3.7-16,6.2C116.2,73.1,114.5,72.3,112.9,71.4z"/>
</g>
</svg>
