<svg width="91" height="91" xmlns="http://www.w3.org/2000/svg">

 <g>
  <title>background</title>
  <rect fill="none" id="canvas_background" height="402" width="582" y="-1" x="-1"/>
 </g>
 <g>
  <title>Layer 1</title>
  <path id="svg_4" fill="#FF889C" d="m86.948997,33.858002c0,0 -25.271999,-8.343002 -29.995998,-8.507002c-4.725998,-0.164 -10.361,2.292999 -11.452,5.892c0,0 -2.361,-5.898001 -10.541,-5.898001c-8.181999,0 -30.909999,7.699999 -30.909999,7.699999s13.279,5.931004 41.27,5.931004c27.993004,0 41.628998,-5.118 41.628998,-5.118z"/>
  <path id="svg_5" fill="#FF889C" d="m45.591,49.241001c-21.455999,-0.652 -42.356,-15.708 -42.356,-15.708s18.358001,31.424999 41.269002,31.424999c22.900997,0 43.263996,-30.281002 43.263996,-30.281002s-20.725998,15.223003 -42.176998,14.564003z"/>
  <path id="svg_7" fill="#FF889C" d="m36.206001,70.382004c0,0 9.173,4.957993 18.591999,0"/>
  <path id="svg_9" fill="#3B6A75" d="m89.281998,33.099998c-0.141998,-0.135998 -0.300995,-0.240997 -0.465996,-0.331997c-0.264,-0.450001 -0.665001,-0.814001 -1.182999,-0.985001c-2.616005,-0.865002 -25.710003,-8.447001 -30.605003,-8.617001c-4.039001,-0.121 -8.815998,1.385 -11.59,4.167999c-1.854,-1.979 -5.118999,-4.175999 -10.479,-4.175999c-8.444,0 -30.669,7.494999 -31.61,7.816c-0.297,0.101 -0.545,0.275999 -0.767,0.48c-0.297,0.093 -0.579,0.241999 -0.821,0.462c-0.764,0.694 -0.937,1.829998 -0.417,2.721001c0.776,1.327 19.268,32.509003 43.157999,32.509003c23.793999,0 44.222,-29.972004 45.079002,-31.248005c0.594002,-0.882 0.466995,-2.062 -0.299004,-2.798zm-54.321999,-5.568998c6.502003,0 8.438999,4.360001 8.509003,4.522001c0.347,0.862999 1.207996,1.442997 2.125,1.373997c0.928997,-0.040997 1.73,-0.661999 2.000999,-1.550999c0.711998,-2.347 5.243,-4.49 9.281998,-4.338999c2.548,0.09 13.076004,3.188999 22.339005,6.121c-6.597,1.417999 -17.884003,3.131001 -33.896004,3.131001c-16.414,0 -27.722,-2.093002 -34.106999,-3.749001c7.245999,-2.245001 18.648999,-5.507 23.746999,-5.509001zm42.112999,11.039999c-7.549995,3.945 -18.732998,8.504002 -30.122997,8.504002c-0.431999,0 -0.861,-0.007999 -1.295002,-0.021c-10.736,-0.326 -21.441999,-4.461002 -29.243999,-8.348999c6.860001,1.306 16.441002,2.459 28.908001,2.459c14.202,0.000999 24.735001,-1.290001 31.753998,-2.593002zm-32.57,24.200001c-14.024998,0 -26.521997,-12.931 -33.507998,-21.91c8.271001,4.504002 21.205001,10.162998 34.526999,10.567001c12.539001,0.388 24.650997,-4.343002 32.914997,-8.591c-7.723999,8.577 -20.492996,19.933998 -33.933998,19.933998z"/>
  <path id="svg_10" fill="#3B6A75" d="m53.778,68.445999c-8.216,4.325005 -16.188999,0.194 -16.537998,0.008003c-1.062,-0.57 -2.387001,-0.175003 -2.960003,0.888c-0.573997,1.061996 -0.178997,2.390999 0.886002,2.964996c0.271999,0.150002 4.682999,2.475998 10.620998,2.475998c3.057003,0 6.519001,-0.616997 10.030003,-2.463997c1.066998,-0.563004 1.477997,-1.886002 0.913998,-2.956001c-0.558998,-1.069 -1.884998,-1.478996 -2.952999,-0.917z"/>
  <path id="svg_11" fill="#FFFFFF" d="m19.694,31.681c0,0 12.890999,-4.052999 16.410999,-2.757c0,0 4.496002,0.649 5.952999,3.728001c0.000999,-0.000999 -5.092999,-4.124001 -22.363998,-0.971001z"/>
  <path id="svg_12" fill="#F16B72" d="m67.694,51.290001c0,0 -19.865002,9.787998 -39.734001,4.375c0,0 17.542,14.717003 39.734001,-4.375z"/>
 </g>
</svg>