<svg width="91" height="91" xmlns="http://www.w3.org/2000/svg">

 <g>
  <title>background</title>
  <rect fill="none" id="canvas_background" height="402" width="582" y="-1" x="-1"/>
 </g>
 <g>
  <title>Layer 1</title>
  <ellipse stroke="#000" ry="9.868721" rx="37.786816" id="svg_13" cy="40.695492" cx="46.214181" stroke-width="1.5" fill="#ffffff"/>
  <path id="svg_4" fill="#FF889C" d="m86.949,33.858c0,0 -25.272,-8.343 -29.996,-8.507c-4.726,-0.164 -10.361,2.293 -11.452,5.892c0,0 -2.361,-5.898 -10.541,-5.898c-8.182,0 -30.91,7.7 -30.91,7.7s13.279,5.931 41.27,5.931c27.993,0 41.629,-5.118 41.629,-5.118z"/>
  <path id="svg_5" fill="#FF889C" d="m45.591,49.241c-21.456,-0.652 -42.356,-15.708 -42.356,-15.708s18.358,31.425 41.269,31.425c22.901,0 43.264,-30.281 43.264,-30.281s-20.726,15.223 -42.177,14.564z"/>
  <path id="svg_7" fill="#FF889C" d="m36.206,70.382c0,0 9.173,4.958 18.592,0"/>
  <path id="svg_9" fill="#3B6A75" d="m89.282,33.1c-0.142,-0.136 -0.301,-0.241 -0.466,-0.332c-0.264,-0.45 -0.665,-0.814 -1.183,-0.985c-2.616,-0.865 -25.71,-8.447 -30.605,-8.617c-4.039,-0.121 -8.816,1.385 -11.59,4.168c-1.854,-1.979 -5.119,-4.176 -10.479,-4.176c-8.444,0 -30.669,7.495 -31.61,7.816c-0.297,0.101 -0.545,0.276 -0.767,0.48c-0.297,0.093 -0.579,0.242 -0.821,0.462c-0.764,0.694 -0.937,1.83 -0.417,2.721c0.776,1.327 19.268,32.509 43.158,32.509c23.794,0 44.222,-29.972 45.079,-31.248c0.594,-0.882 0.467,-2.062 -0.299,-2.798zm-54.322,-5.569c6.502,0 8.439,4.36 8.509,4.522c0.347,0.863 1.208,1.443 2.125,1.374c0.929,-0.041 1.73,-0.662 2.001,-1.551c0.712,-2.347 5.243,-4.49 9.282,-4.339c2.548,0.09 13.076,3.189 22.339,6.121c-6.597,1.418 -17.884,3.131 -33.896,3.131c-16.414,0 -27.722,-2.093 -34.107,-3.749c7.246,-2.245 18.649,-5.507 23.747,-5.509zm42.113,11.04c-7.55,3.945 -18.733,8.504 -30.123,8.504c-0.432,0 -0.861,-0.008 -1.295,-0.021c-10.736,-0.326 -21.442,-4.461 -29.244,-8.349c6.86,1.306 16.441,2.459 28.908,2.459c14.202,0.001 24.735,-1.29 31.754,-2.593zm-32.57,24.2c-14.025,0 -26.522,-12.931 -33.508,-21.91c8.271,4.504 21.205,10.163 34.527,10.567c12.539,0.388 24.651,-4.343 32.915,-8.591c-7.724,8.577 -20.493,19.934 -33.934,19.934z"/>
  <path id="svg_10" fill="#3B6A75" d="m53.778,68.446c-8.216,4.325 -16.189,0.194 -16.538,0.008c-1.062,-0.57 -2.387,-0.175 -2.96,0.888c-0.574,1.062 -0.179,2.391 0.886,2.965c0.272,0.15 4.683,2.476 10.621,2.476c3.057,0 6.519,-0.617 10.03,-2.464c1.067,-0.563 1.478,-1.886 0.914,-2.956c-0.559,-1.069 -1.885,-1.479 -2.953,-0.917z"/>
  <path id="svg_11" fill="#FFFFFF" d="m19.694,31.681c0,0 12.891,-4.053 16.411,-2.757c0,0 4.496,0.649 5.953,3.728c0.001,-0.001 -5.093,-4.124 -22.364,-0.971z"/>
  <path id="svg_12" fill="#F16B72" d="m67.694,51.29c0,0 -19.865,9.788 -39.734,4.375c0,0 17.542,14.717 39.734,-4.375z"/>
 </g>
</svg>