<svg width="91" height="91" xmlns="http://www.w3.org/2000/svg">

 <g>
  <title>background</title>
  <rect fill="none" id="canvas_background" height="402" width="582" y="-1" x="-1"/>
 </g>
 <g>
  <title>Layer 1</title>
  <path id="svg_3" fill="#f5f9f8" d="m26.469,16.727l-15.257,0l0,71.665l61.557,0c4.294,0 7.813,-3.517 7.813,-7.81l0,-63.855l-15.544,0"/>
  <path id="svg_4" fill="#3c393d" d="m72.769,90.904l-61.557,0c-1.388,0 -2.513,-1.125 -2.513,-2.513l0,-71.664c0,-1.388 1.125,-2.513 2.513,-2.513l15.257,0c1.388,0 2.513,1.125 2.513,2.513s-1.125,2.513 -2.513,2.513l-12.744,0l0,66.64l59.044,0c2.923,0 5.3,-2.377 5.3,-5.297l0,-61.344l-13.03,0c-1.388,0 -2.513,-1.125 -2.513,-2.513s1.125,-2.513 2.513,-2.513l15.543,0c1.388,0 2.513,1.125 2.513,2.513l0,63.855c-0.001,5.692 -4.633,10.323 -10.326,10.323z"/>
  <path id="svg_5" fill="#3c393d" d="m69.88,60.533l-47.967,0c-1.388,0 -2.513,-1.125 -2.513,-2.513s1.125,-2.513 2.513,-2.513l47.967,0c1.388,0 2.513,1.125 2.513,2.513s-1.125,2.513 -2.513,2.513z"/>
  <path id="svg_6" fill="#3c393d" d="m69.88,45.414l-47.967,0c-1.388,0 -2.513,-1.125 -2.513,-2.513c0,-1.388 1.125,-2.513 2.513,-2.513l47.967,0c1.388,0 2.513,1.125 2.513,2.513c0,1.388 -1.125,2.513 -2.513,2.513z"/>
  <path id="svg_7" fill="#3c393d" d="m30.181,75.66l-8.268,0c-1.388,0 -2.513,-1.125 -2.513,-2.514c0,-1.387 1.125,-2.512 2.513,-2.512l8.268,0c1.388,0 2.513,1.125 2.513,2.512c-0.001,1.389 -1.126,2.514 -2.513,2.514z"/>
  <path id="svg_8" fill="#3c393d" d="m47.297,75.66l-8.689,0c-1.388,0 -2.513,-1.125 -2.513,-2.514c0,-1.387 1.125,-2.512 2.513,-2.512l8.689,0c1.388,0 2.513,1.125 2.513,2.512c0,1.389 -1.125,2.514 -2.513,2.514z"/>
  <path id="svg_9" fill="#3c393d" d="m63.984,75.66l-8.264,0c-1.388,0 -2.513,-1.125 -2.513,-2.514c0,-1.387 1.125,-2.512 2.513,-2.512l8.264,0c1.388,0 2.513,1.125 2.513,2.512c0,1.389 -1.125,2.514 -2.513,2.514z"/>
  <path id="svg_11" fill="#989690" d="m54.56,8.462c-1.613,-3.254 -4.927,-5.509 -8.804,-5.509s-7.197,2.255 -8.807,5.509l-10.482,0l0,16.531l38.577,0l0,-16.531l-10.484,0z"/>
  <path id="svg_12" fill="#3c393d" d="m65.044,27.505l-38.577,0c-1.388,0 -2.513,-1.125 -2.513,-2.513l0,-16.53c0,-1.388 1.125,-2.513 2.513,-2.513l9.035,0c2.279,-3.434 6.079,-5.509 10.254,-5.509c4.169,0 7.968,2.076 10.249,5.509l9.039,0c1.388,0 2.513,1.125 2.513,2.513l0,16.531c0,1.387 -1.125,2.512 -2.513,2.512zm-36.065,-5.025l33.552,0l0,-11.505l-7.971,0c-0.955,0 -1.827,-0.542 -2.251,-1.397c-1.258,-2.537 -3.769,-4.112 -6.553,-4.112c-2.789,0 -5.301,1.575 -6.555,4.11c-0.424,0.856 -1.296,1.399 -2.252,1.399l-7.97,0l0,11.505z"/>
 </g>
</svg>